<svg xmlns="http://www.w3.org/2000/svg" width="270" height="270" viewBox="0 0 270 270" version="1.1"><path d="M 183 43.393 C 183 43.609, 183.698 44.054, 184.552 44.382 C 185.442 44.723, 185.843 44.555, 185.493 43.989 C 184.906 43.038, 183 42.583, 183 43.393 M 125.813 46.683 C 126.534 46.972, 127.397 46.936, 127.729 46.604 C 128.061 46.272, 127.471 46.036, 126.417 46.079 C 125.252 46.127, 125.015 46.364, 125.813 46.683 M 144.750 46.662 C 145.438 46.940, 146.563 46.940, 147.250 46.662 C 147.938 46.385, 147.375 46.158, 146 46.158 C 144.625 46.158, 144.063 46.385, 144.750 46.662 M 77.813 50.683 C 78.534 50.972, 79.397 50.936, 79.729 50.604 C 80.061 50.272, 79.471 50.036, 78.417 50.079 C 77.252 50.127, 77.015 50.364, 77.813 50.683 M 87.083 50.416 C 87.820 51.152, 98.946 51.387, 99.652 50.682 C 100.027 50.307, 97.258 50, 93.500 50 C 89.742 50, 86.854 50.187, 87.083 50.416 M 134.264 55.718 C 135.784 55.947, 138.034 55.941, 139.264 55.704 C 140.494 55.467, 139.250 55.279, 136.500 55.286 C 133.750 55.294, 132.744 55.488, 134.264 55.718 M 123.813 56.683 C 124.534 56.972, 125.397 56.936, 125.729 56.604 C 126.061 56.272, 125.471 56.036, 124.417 56.079 C 123.252 56.127, 123.015 56.364, 123.813 56.683 M 147.813 56.683 C 148.534 56.972, 149.397 56.936, 149.729 56.604 C 150.061 56.272, 149.471 56.036, 148.417 56.079 C 147.252 56.127, 147.015 56.364, 147.813 56.683 M 199.335 58.250 C 198.905 58.938, 198.541 59.982, 198.526 60.570 C 198.482 62.379, 180.239 81.217, 179.802 79.905 C 179.576 79.228, 178.581 78.556, 177.590 78.410 C 176.044 78.183, 176.119 78.498, 178.121 80.628 C 179.854 82.474, 180.010 82.941, 178.726 82.449 C 176.292 81.514, 176.568 82.212, 179.891 85.396 L 182.783 88.166 186.480 82.596 C 192.090 74.144, 203.601 64.453, 207.095 65.240 C 209.361 65.750, 209.040 63.202, 206.452 60.126 C 203.725 56.885, 200.691 56.085, 199.335 58.250 M 107.354 61.236 C 107.094 61.656, 109.946 61.948, 113.691 61.884 C 120.974 61.760, 120.538 61.294, 112.663 60.785 C 110.003 60.613, 107.614 60.816, 107.354 61.236 M 180.872 65.750 C 179.629 67.336, 179.664 67.371, 181.250 66.128 C 182.213 65.373, 183 64.585, 183 64.378 C 183 63.555, 182.179 64.084, 180.872 65.750 M 153.813 65.683 C 154.534 65.972, 155.397 65.936, 155.729 65.604 C 156.061 65.272, 155.471 65.036, 154.417 65.079 C 153.252 65.127, 153.015 65.364, 153.813 65.683 M 71 67.393 C 71 67.609, 71.698 68.054, 72.552 68.382 C 73.442 68.723, 73.843 68.555, 73.493 67.989 C 72.906 67.038, 71 66.583, 71 67.393 M 81.613 68.183 C 81.902 68.650, 82.557 68.774, 83.069 68.457 C 84.377 67.649, 84.230 67.333, 82.544 67.333 C 81.743 67.333, 81.324 67.716, 81.613 68.183 M 134.442 68.094 C 134.134 68.592, 135.034 69, 136.441 69 C 139.505 69, 139.753 68.430, 137.001 67.711 C 135.902 67.423, 134.750 67.596, 134.442 68.094 M 162.813 67.683 C 163.534 67.972, 164.397 67.936, 164.729 67.604 C 165.061 67.272, 164.471 67.036, 163.417 67.079 C 162.252 67.127, 162.015 67.364, 162.813 67.683 M 183.946 70.750 L 180.500 74.500 184.250 71.054 C 186.313 69.158, 188 67.471, 188 67.304 C 188 66.540, 187.154 67.260, 183.946 70.750 M 202.405 69.250 L 200.500 71.500 202.750 69.595 C 203.988 68.547, 205 67.535, 205 67.345 C 205 66.545, 204.195 67.136, 202.405 69.250 M 71.872 72.750 C 70.629 74.336, 70.664 74.371, 72.250 73.128 C 73.916 71.821, 74.445 71, 73.622 71 C 73.415 71, 72.627 71.787, 71.872 72.750 M 104.784 72.738 C 107.689 72.941, 112.189 72.939, 114.784 72.734 C 117.378 72.528, 115 72.363, 109.500 72.365 C 104 72.368, 101.878 72.536, 104.784 72.738 M 120 74.833 C 120 75.633, 116.773 76.066, 109.750 76.209 L 99.500 76.419 109.412 76.747 C 118.574 77.051, 122.541 76.208, 120.683 74.350 C 120.308 73.974, 120 74.192, 120 74.833 M 142 75.378 C 142 75.585, 142.787 76.373, 143.750 77.128 C 145.336 78.371, 145.371 78.336, 144.128 76.750 C 142.821 75.084, 142 74.555, 142 75.378 M 211.553 76.915 C 211.231 77.436, 211.394 78.125, 211.915 78.447 C 212.436 78.769, 213.125 78.606, 213.447 78.085 C 213.769 77.564, 213.606 76.875, 213.085 76.553 C 212.564 76.231, 211.875 76.394, 211.553 76.915 M 66.195 79.500 C 66.215 81.150, 66.439 81.704, 66.693 80.731 C 66.947 79.758, 66.930 78.408, 66.656 77.731 C 66.382 77.054, 66.175 77.850, 66.195 79.500 M 68.461 125 C 68.461 150.575, 68.591 161.038, 68.749 148.250 C 68.907 135.463, 68.907 114.538, 68.749 101.750 C 68.591 88.963, 68.461 99.425, 68.461 125 M 73.079 80.583 C 73.127 81.748, 73.364 81.985, 73.683 81.188 C 73.972 80.466, 73.936 79.603, 73.604 79.271 C 73.272 78.939, 73.036 79.529, 73.079 80.583 M 139 80.500 C 139 81.325, 139.436 82, 139.969 82 C 140.501 82, 140.678 81.325, 140.362 80.500 C 140.045 79.675, 139.609 79, 139.393 79 C 139.177 79, 139 79.675, 139 80.500 M 150.079 80.583 C 150.127 81.748, 150.364 81.985, 150.683 81.188 C 150.972 80.466, 150.936 79.603, 150.604 79.271 C 150.272 78.939, 150.036 79.529, 150.079 80.583 M 144.855 81.250 C 144.658 81.938, 144.765 85.650, 145.094 89.500 L 145.691 96.500 145.714 88.250 C 145.736 80.139, 145.568 78.768, 144.855 81.250 M 197.872 81.750 C 196.629 83.336, 196.664 83.371, 198.250 82.128 C 199.213 81.373, 200 80.585, 200 80.378 C 200 79.555, 199.179 80.084, 197.872 81.750 M 79.750 81.732 C 82.087 81.943, 85.912 81.943, 88.250 81.732 C 90.587 81.522, 88.675 81.349, 84 81.349 C 79.325 81.349, 77.412 81.522, 79.750 81.732 M 103.304 81.747 C 109.247 81.924, 118.697 81.923, 124.304 81.745 C 129.912 81.567, 125.050 81.422, 113.500 81.423 C 101.950 81.424, 97.362 81.570, 103.304 81.747 M 168.500 84 C 169.495 85.100, 170.535 86, 170.810 86 C 171.085 86, 170.495 85.100, 169.500 84 C 168.505 82.900, 167.465 82, 167.190 82 C 166.915 82, 167.505 82.900, 168.500 84 M 150.116 87.750 C 150.052 90.638, 150.360 93, 150.799 93 C 151.239 93, 151.438 91.313, 151.242 89.250 C 150.630 82.819, 150.237 82.295, 150.116 87.750 M 66.079 86.583 C 66.127 87.748, 66.364 87.985, 66.683 87.188 C 66.972 86.466, 66.936 85.603, 66.604 85.271 C 66.272 84.939, 66.036 85.529, 66.079 86.583 M 89.500 88 C 89.160 88.550, 89.332 89, 89.882 89 C 90.432 89, 91.160 88.550, 91.500 88 C 91.840 87.450, 91.668 87, 91.118 87 C 90.568 87, 89.840 87.450, 89.500 88 M 103.980 89.524 C 103.284 90.362, 102.909 91.242, 103.145 91.479 C 103.382 91.715, 104.125 91.030, 104.796 89.955 C 106.248 87.630, 105.764 87.375, 103.980 89.524 M 126.866 96.864 C 116.589 106.362, 103.945 119.628, 101.253 123.737 L 99.614 126.238 93.854 119.869 L 88.095 113.500 84.545 117.019 L 80.996 120.538 90.072 129.519 L 99.148 138.500 105.126 132 C 122.206 113.427, 137.894 92.182, 136.847 89.042 C 136.651 88.452, 132.159 91.972, 126.866 96.864 M 142.300 93 C 142.300 96.025, 142.487 97.263, 142.716 95.750 C 142.945 94.237, 142.945 91.763, 142.716 90.250 C 142.487 88.737, 142.300 89.975, 142.300 93 M 161.762 89.707 C 163.006 89.946, 164.806 89.937, 165.762 89.687 C 166.718 89.437, 165.700 89.241, 163.500 89.252 C 161.300 89.263, 160.518 89.468, 161.762 89.707 M 194.813 90.683 C 195.534 90.972, 196.397 90.936, 196.729 90.604 C 197.061 90.272, 196.471 90.036, 195.417 90.079 C 194.252 90.127, 194.015 90.364, 194.813 90.683 M 84.946 94.750 L 81.500 98.500 85.250 95.054 C 88.740 91.846, 89.460 91, 88.696 91 C 88.529 91, 86.842 92.688, 84.946 94.750 M 193 92.941 C 193 93.459, 193.445 94.157, 193.989 94.493 C 194.555 94.843, 194.723 94.442, 194.382 93.552 C 193.717 91.820, 193 91.503, 193 92.941 M 88.687 97.805 C 86.060 100.547, 85.057 102.701, 86.953 101.529 C 88.031 100.863, 92.343 95, 91.755 95 C 91.546 95, 90.165 96.262, 88.687 97.805 M 179 95.313 C 179 95.485, 180.463 96.948, 182.250 98.563 L 185.500 101.500 182.563 98.250 C 179.825 95.221, 179 94.540, 179 95.313 M 103.405 98.146 C 101.513 100.276, 101.515 100.283, 103.694 99.140 C 106.125 97.865, 107.622 96, 106.214 96 C 105.717 96, 104.453 96.965, 103.405 98.146 M 202 103.381 C 192.185 109.335, 182 116.841, 182 118.120 C 182 118.604, 181.398 119, 180.662 119 C 178.900 119, 158.309 140.164, 154.150 146.250 C 152.365 148.862, 150.797 151, 150.667 151 C 150.536 151, 148 147.602, 145.030 143.450 L 139.630 135.899 135.622 139.907 C 131.932 143.597, 131.736 144.058, 133.153 145.708 C 134 146.694, 138.099 151.634, 142.262 156.686 L 149.830 165.872 157.165 157.720 C 161.199 153.237, 173.356 140.217, 184.180 128.787 C 204.009 107.850, 211.612 99.254, 210.891 98.587 C 210.676 98.388, 206.675 100.545, 202 103.381 M 178.500 104 C 179.495 105.100, 180.535 106, 180.810 106 C 181.085 106, 180.495 105.100, 179.500 104 C 178.505 102.900, 177.465 102, 177.190 102 C 176.915 102, 177.505 102.900, 178.500 104 M 44.500 104 C 42.870 104.701, 42.812 104.872, 44.191 104.930 C 45.121 104.968, 46.160 104.550, 46.500 104 C 47.211 102.850, 47.176 102.850, 44.500 104 M 97.924 105.750 L 95.500 108.500 98.250 106.076 C 100.820 103.810, 101.459 103, 100.674 103 C 100.495 103, 99.258 104.237, 97.924 105.750 M 139.473 110.250 L 132.500 117.500 139.750 110.527 C 146.484 104.050, 147.457 103, 146.723 103 C 146.571 103, 143.308 106.263, 139.473 110.250 M 66.446 135.500 C 66.447 153.100, 66.583 160.159, 66.749 151.187 C 66.914 142.215, 66.914 127.815, 66.748 119.187 C 66.581 110.559, 66.446 117.900, 66.446 135.500 M 102 108.500 C 100.134 110.425, 99.033 112, 99.554 112 C 100.074 112, 101.757 110.425, 103.293 108.500 C 106.858 104.032, 106.331 104.032, 102 108.500 M 158.405 111.250 L 156.500 113.500 158.750 111.595 C 159.988 110.547, 161 109.535, 161 109.345 C 161 108.545, 160.195 109.136, 158.405 111.250 M 206.872 111.750 C 205.629 113.336, 205.664 113.371, 207.250 112.128 C 208.213 111.373, 209 110.585, 209 110.378 C 209 109.555, 208.179 110.084, 206.872 111.750 M 159 115.313 C 159 115.485, 160.463 116.948, 162.250 118.563 L 165.500 121.500 162.563 118.250 C 159.825 115.221, 159 114.540, 159 115.313 M 45.079 120.583 C 45.127 121.748, 45.364 121.985, 45.683 121.188 C 45.972 120.466, 45.936 119.603, 45.604 119.271 C 45.272 118.939, 45.036 119.529, 45.079 120.583 M 199 120.378 C 199 120.585, 199.787 121.373, 200.750 122.128 C 202.336 123.371, 202.371 123.336, 201.128 121.750 C 199.821 120.084, 199 119.555, 199 120.378 M 229.079 125.583 C 229.127 126.748, 229.364 126.985, 229.683 126.188 C 229.972 125.466, 229.936 124.603, 229.604 124.271 C 229.272 123.939, 229.036 124.529, 229.079 125.583 M 44.158 128 C 44.158 129.375, 44.385 129.938, 44.662 129.250 C 44.940 128.563, 44.940 127.438, 44.662 126.750 C 44.385 126.063, 44.158 126.625, 44.158 128 M 127.469 132.250 L 121.500 138.500 127.750 132.531 C 133.556 126.987, 134.458 126, 133.719 126 C 133.564 126, 130.751 128.813, 127.469 132.250 M 54.195 129.500 C 54.215 131.150, 54.439 131.704, 54.693 130.731 C 54.947 129.758, 54.930 128.408, 54.656 127.731 C 54.382 127.054, 54.175 127.850, 54.195 129.500 M 219.079 128.583 C 219.127 129.748, 219.364 129.985, 219.683 129.188 C 219.972 128.466, 219.936 127.603, 219.604 127.271 C 219.272 126.939, 219.036 127.529, 219.079 128.583 M 148 130.500 C 149.292 131.875, 150.574 133, 150.849 133 C 151.124 133, 150.292 131.875, 149 130.500 C 147.708 129.125, 146.426 128, 146.151 128 C 145.876 128, 146.708 129.125, 148 130.500 M 215.195 133.500 C 215.215 135.150, 215.439 135.704, 215.693 134.731 C 215.947 133.758, 215.930 132.408, 215.656 131.731 C 215.382 131.054, 215.175 131.850, 215.195 133.500 M 185.981 133.523 C 184.924 134.796, 184.986 134.943, 186.359 134.416 C 187.261 134.069, 188 133.384, 188 132.893 C 188 131.607, 187.421 131.788, 185.981 133.523 M 230.310 138.500 C 230.315 141.800, 230.502 143.029, 230.725 141.232 C 230.947 139.435, 230.943 136.735, 230.715 135.232 C 230.486 133.729, 230.304 135.200, 230.310 138.500 M 34.558 136.907 C 34.249 137.405, 34.898 137.578, 35.999 137.290 C 38.334 136.679, 38.629 136, 36.559 136 C 35.766 136, 34.866 136.408, 34.558 136.907 M 194.750 137.662 C 195.438 137.940, 196.563 137.940, 197.250 137.662 C 197.938 137.385, 197.375 137.158, 196 137.158 C 194.625 137.158, 194.063 137.385, 194.750 137.662 M 207 143.500 C 208.292 144.875, 209.574 146, 209.849 146 C 210.124 146, 209.292 144.875, 208 143.500 C 206.708 142.125, 205.426 141, 205.151 141 C 204.876 141, 205.708 142.125, 207 143.500 M 181.437 146.250 L 178.500 149.500 181.750 146.563 C 184.779 143.825, 185.460 143, 184.687 143 C 184.515 143, 183.052 144.463, 181.437 146.250 M 199.500 145 C 200.495 146.100, 201.535 147, 201.810 147 C 202.085 147, 201.495 146.100, 200.500 145 C 199.505 143.900, 198.465 143, 198.190 143 C 197.915 143, 198.505 143.900, 199.500 145 M 85.234 149.029 C 83.438 150.663, 82.341 152, 82.797 152 C 83.253 152, 84.919 150.650, 86.500 149 C 90.175 145.164, 89.466 145.180, 85.234 149.029 M 44.158 150 C 44.158 151.375, 44.385 151.938, 44.662 151.250 C 44.940 150.563, 44.940 149.438, 44.662 148.750 C 44.385 148.063, 44.158 148.625, 44.158 150 M 54.195 152.500 C 54.215 154.150, 54.439 154.704, 54.693 153.731 C 54.947 152.758, 54.930 151.408, 54.656 150.731 C 54.382 150.054, 54.175 150.850, 54.195 152.500 M 88 153.500 C 85.654 155.921, 85.094 157, 86.185 157 C 87.053 157, 88.964 155.425, 90.432 153.500 C 91.900 151.575, 92.717 150, 92.247 150 C 91.777 150, 89.866 151.575, 88 153.500 M 127 152.500 C 128.292 153.875, 129.574 155, 129.849 155 C 130.124 155, 129.292 153.875, 128 152.500 C 126.708 151.125, 125.426 150, 125.151 150 C 124.876 150, 125.708 151.125, 127 152.500 M 191.663 151.765 C 190.098 153.331, 190.230 153.653, 193.698 156.739 C 197.401 160.033, 197.409 160.035, 199.398 158.047 C 201.490 155.954, 201.073 154.213, 198.817 155.622 C 196.096 157.321, 194.772 156.910, 196.569 154.924 C 198.343 152.963, 197.249 152.151, 195.367 154.033 C 194.799 154.601, 193.531 154.757, 192.550 154.381 C 190.930 153.759, 190.973 153.585, 193.018 152.490 C 194.257 151.827, 194.835 151.016, 194.304 150.688 C 193.773 150.359, 192.584 150.844, 191.663 151.765 M 229.079 151.583 C 229.127 152.748, 229.364 152.985, 229.683 152.188 C 229.972 151.466, 229.936 150.603, 229.604 150.271 C 229.272 149.939, 229.036 150.529, 229.079 151.583 M 105.195 153.500 C 105.215 155.150, 105.439 155.704, 105.693 154.731 C 105.947 153.758, 105.930 152.408, 105.656 151.731 C 105.382 151.054, 105.175 151.850, 105.195 153.500 M 212.079 152.583 C 212.127 153.748, 212.364 153.985, 212.683 153.188 C 212.972 152.466, 212.936 151.603, 212.604 151.271 C 212.272 150.939, 212.036 151.529, 212.079 152.583 M 221.252 154.500 C 221.263 156.700, 221.468 157.482, 221.707 156.238 C 221.946 154.994, 221.937 153.194, 221.687 152.238 C 221.437 151.282, 221.241 152.300, 221.252 154.500 M 112.079 153.583 C 112.127 154.748, 112.364 154.985, 112.683 154.188 C 112.972 153.466, 112.936 152.603, 112.604 152.271 C 112.272 151.939, 112.036 152.529, 112.079 153.583 M 91.861 157.914 C 90.562 158.967, 89.761 160.090, 90.079 160.410 C 90.398 160.730, 91.714 159.869, 93.004 158.496 C 95.787 155.533, 95.179 155.224, 91.861 157.914 M 198.490 157.016 C 198.144 157.575, 197.373 157.731, 196.776 157.362 C 196.113 156.952, 195.980 157.159, 196.435 157.894 C 197.004 158.815, 197.509 158.823, 198.589 157.926 C 200.004 156.752, 200.383 156, 199.559 156 C 199.316 156, 198.835 156.457, 198.490 157.016 M 202 160.500 C 199.571 162.975, 197.809 165, 198.084 165 C 198.359 165, 200.571 162.975, 203 160.500 C 205.429 158.025, 207.191 156, 206.916 156 C 206.641 156, 204.429 158.025, 202 160.500 M 192 161.500 C 193.866 163.425, 195.617 165, 195.892 165 C 196.167 165, 194.866 163.425, 193 161.500 C 191.134 159.575, 189.383 158, 189.108 158 C 188.833 158, 190.134 159.575, 192 161.500 M 123 159.378 C 123 159.585, 123.787 160.373, 124.750 161.128 C 126.336 162.371, 126.371 162.336, 125.128 160.750 C 123.821 159.084, 123 158.555, 123 159.378 M 183 159.378 C 183 159.585, 183.787 160.373, 184.750 161.128 C 186.336 162.371, 186.371 162.336, 185.128 160.750 C 183.821 159.084, 183 158.555, 183 159.378 M 168.195 165.500 C 168.215 167.150, 168.439 167.704, 168.693 166.731 C 168.947 165.758, 168.930 164.408, 168.656 163.731 C 168.382 163.054, 168.175 163.850, 168.195 165.500 M 35.553 165.915 C 35.231 166.436, 35.394 167.125, 35.915 167.447 C 36.436 167.769, 37.125 167.606, 37.447 167.085 C 37.769 166.564, 37.606 165.875, 37.085 165.553 C 36.564 165.231, 35.875 165.394, 35.553 165.915 M 40 166 C 40 166.550, 40.450 167, 41 167 C 41.550 167, 42 166.550, 42 166 C 42 165.450, 41.550 165, 41 165 C 40.450 165, 40 165.450, 40 166 M 174.158 167 C 174.158 168.375, 174.385 168.938, 174.662 168.250 C 174.940 167.563, 174.940 166.438, 174.662 165.750 C 174.385 165.063, 174.158 165.625, 174.158 167 M 60.079 169.583 C 60.127 170.748, 60.364 170.985, 60.683 170.188 C 60.972 169.466, 60.936 168.603, 60.604 168.271 C 60.272 167.939, 60.036 168.529, 60.079 169.583 M 66.158 170 C 66.158 171.375, 66.385 171.938, 66.662 171.250 C 66.940 170.563, 66.940 169.438, 66.662 168.750 C 66.385 168.063, 66.158 168.625, 66.158 170 M 185.500 169 C 185.160 169.550, 185.359 170, 185.941 170 C 186.523 170, 187 169.550, 187 169 C 187 168.450, 186.802 168, 186.559 168 C 186.316 168, 185.840 168.450, 185.500 169 M 121 169.378 C 121 169.585, 121.787 170.373, 122.750 171.128 C 124.336 172.371, 124.371 172.336, 123.128 170.750 C 121.821 169.084, 121 168.555, 121 169.378 M 134.958 170.550 C 133.890 171.838, 133.987 172.388, 135.531 173.800 C 137.287 175.405, 137.317 175.402, 136.073 173.750 C 135.018 172.350, 135.004 171.700, 136 170.500 C 136.685 169.675, 137.020 169, 136.745 169 C 136.470 169, 135.666 169.698, 134.958 170.550 M 163.462 174.250 L 158.500 179.500 163.750 174.538 C 168.628 169.926, 169.459 169, 168.712 169 C 168.554 169, 166.192 171.363, 163.462 174.250 M 114 171.378 C 114 171.585, 114.787 172.373, 115.750 173.128 C 117.336 174.371, 117.371 174.336, 116.128 172.750 C 114.821 171.084, 114 170.555, 114 171.378 M 203.462 176.247 C 199.846 180.071, 199.602 180.472, 202.563 177.726 C 204.798 175.654, 206.935 174.193, 207.313 174.480 C 207.691 174.766, 207.779 174.704, 207.509 174.342 C 207.238 173.980, 207.519 173.080, 208.131 172.342 C 210.842 169.075, 207.986 171.464, 203.462 176.247 M 172.437 175.250 L 169.500 178.500 172.750 175.563 C 175.779 172.825, 176.460 172, 175.687 172 C 175.515 172, 174.052 173.463, 172.437 175.250 M 142.234 176.029 C 140.438 177.663, 139.341 179, 139.797 179 C 140.253 179, 141.919 177.650, 143.500 176 C 147.175 172.164, 146.466 172.180, 142.234 176.029 M 71.500 176 C 72.495 177.100, 73.535 178, 73.810 178 C 74.085 178, 73.495 177.100, 72.500 176 C 71.505 174.900, 70.465 174, 70.190 174 C 69.915 174, 70.505 174.900, 71.500 176 M 127 176.378 C 127 176.585, 127.787 177.373, 128.750 178.128 C 130.336 179.371, 130.371 179.336, 129.128 177.750 C 127.821 176.084, 127 175.555, 127 176.378 M 119 177.378 C 119 177.585, 119.787 178.373, 120.750 179.128 C 122.336 180.371, 122.371 180.336, 121.128 178.750 C 119.821 177.084, 119 176.555, 119 177.378 M 65.500 180 C 66.495 181.100, 67.535 182, 67.810 182 C 68.085 182, 67.495 181.100, 66.500 180 C 65.505 178.900, 64.465 178, 64.190 178 C 63.915 178, 64.505 178.900, 65.500 180 M 87.299 179.745 C 92.139 179.929, 99.789 179.928, 104.299 179.743 C 108.810 179.558, 104.850 179.408, 95.500 179.409 C 86.150 179.410, 82.460 179.562, 87.299 179.745 M 123 182.378 C 123 182.585, 123.787 183.373, 124.750 184.128 C 126.336 185.371, 126.371 185.336, 125.128 183.750 C 123.821 182.084, 123 181.555, 123 182.378 M 133 183.378 C 133 183.585, 133.787 184.373, 134.750 185.128 C 136.336 186.371, 136.371 186.336, 135.128 184.750 C 133.821 183.084, 133 182.555, 133 183.378 M 187.100 186.295 C 185.835 188.402, 185.857 188.423, 187.579 186.774 C 188.570 185.824, 189.166 184.832, 188.903 184.569 C 188.640 184.306, 187.829 185.083, 187.100 186.295 M 176.872 186.750 C 175.629 188.336, 175.664 188.371, 177.250 187.128 C 178.916 185.821, 179.445 185, 178.622 185 C 178.415 185, 177.627 185.787, 176.872 186.750 M 199.980 187.524 C 199.284 188.362, 198.909 189.242, 199.145 189.479 C 199.382 189.715, 200.125 189.030, 200.796 187.955 C 202.248 185.630, 201.764 185.375, 199.980 187.524 M 88 189.500 C 89.292 190.875, 90.574 192, 90.849 192 C 91.124 192, 90.292 190.875, 89 189.500 C 87.708 188.125, 86.426 187, 86.151 187 C 85.876 187, 86.708 188.125, 88 189.500 M 192.564 188.293 C 192.940 189.279, 193.499 189.834, 193.807 189.526 C 194.115 189.219, 193.808 188.412, 193.124 187.733 C 192.136 186.753, 192.022 186.868, 192.564 188.293 M 128 188.378 C 128 188.585, 128.787 189.373, 129.750 190.128 C 131.336 191.371, 131.371 191.336, 130.128 189.750 C 128.821 188.084, 128 187.555, 128 188.378 M 188.405 190.250 L 186.500 192.500 188.750 190.595 C 190.864 188.805, 191.455 188, 190.655 188 C 190.465 188, 189.453 189.012, 188.405 190.250 M 77 191.732 C 78.375 191.985, 80.175 192.711, 81 193.346 C 82.305 194.350, 82.322 194.273, 81.128 192.750 C 80.371 191.785, 78.576 191.061, 77.128 191.136 L 74.500 191.272 77 191.732 M 153.872 192.750 C 152.629 194.336, 152.664 194.371, 154.250 193.128 C 155.916 191.821, 156.445 191, 155.622 191 C 155.415 191, 154.627 191.787, 153.872 192.750 M 169.158 193 C 169.158 194.375, 169.385 194.938, 169.662 194.250 C 169.940 193.563, 169.940 192.438, 169.662 191.750 C 169.385 191.063, 169.158 191.625, 169.158 193 M 180.079 193.583 C 180.127 194.748, 180.364 194.985, 180.683 194.188 C 180.972 193.466, 180.936 192.603, 180.604 192.271 C 180.272 191.939, 180.036 192.529, 180.079 193.583 M 54 197 C 54 197.550, 54.450 198, 55 198 C 55.550 198, 56 197.550, 56 197 C 56 196.450, 55.550 196, 55 196 C 54.450 196, 54 196.450, 54 197 M 140.813 196.683 C 141.534 196.972, 142.397 196.936, 142.729 196.604 C 143.061 196.272, 142.471 196.036, 141.417 196.079 C 140.252 196.127, 140.015 196.364, 140.813 196.683 M 144.813 196.683 C 145.534 196.972, 146.397 196.936, 146.729 196.604 C 147.061 196.272, 146.471 196.036, 145.417 196.079 C 144.252 196.127, 144.015 196.364, 144.813 196.683 M 211.459 199.067 C 211.096 199.653, 211.014 200.348, 211.276 200.610 C 211.538 200.872, 212.019 200.392, 212.345 199.543 C 213.021 197.781, 212.445 197.471, 211.459 199.067 M 215.564 199.293 C 215.940 200.279, 216.499 200.834, 216.807 200.526 C 217.115 200.219, 216.808 199.412, 216.124 198.733 C 215.136 197.753, 215.022 197.868, 215.564 199.293 M 69.958 203.250 C 74.102 207.665, 75 208.459, 75 207.708 C 75 207.548, 72.862 205.410, 70.250 202.958 L 65.500 198.500 69.958 203.250 M 82.762 199.707 C 84.006 199.946, 85.806 199.937, 86.762 199.687 C 87.718 199.437, 86.700 199.241, 84.500 199.252 C 82.300 199.263, 81.518 199.468, 82.762 199.707 M 212.813 202.683 C 213.534 202.972, 214.397 202.936, 214.729 202.604 C 215.061 202.272, 214.471 202.036, 213.417 202.079 C 212.252 202.127, 212.015 202.364, 212.813 202.683 M 166.437 208.250 L 163.500 211.500 166.750 208.563 C 169.779 205.825, 170.460 205, 169.687 205 C 169.515 205, 168.052 206.463, 166.437 208.250 M 147.813 207.683 C 148.534 207.972, 149.397 207.936, 149.729 207.604 C 150.061 207.272, 149.471 207.036, 148.417 207.079 C 147.252 207.127, 147.015 207.364, 147.813 207.683 M 132.250 212.689 C 133.213 212.941, 134.787 212.941, 135.750 212.689 C 136.713 212.438, 135.925 212.232, 134 212.232 C 132.075 212.232, 131.287 212.438, 132.250 212.689 M 147.768 212.725 C 149.565 212.947, 152.265 212.943, 153.768 212.715 C 155.271 212.486, 153.800 212.304, 150.500 212.310 C 147.200 212.315, 145.971 212.502, 147.768 212.725 M 157.813 212.683 C 158.534 212.972, 159.397 212.936, 159.729 212.604 C 160.061 212.272, 159.471 212.036, 158.417 212.079 C 157.252 212.127, 157.015 212.364, 157.813 212.683 M 198.446 213.087 C 197.416 214.755, 199.733 216.667, 201.113 215.287 C 202.267 214.133, 201.545 212, 200 212 C 199.515 212, 198.816 212.489, 198.446 213.087 M 199 214 C 199 214.550, 199.450 215, 200 215 C 200.550 215, 201 214.550, 201 214 C 201 213.450, 200.550 213, 200 213 C 199.450 213, 199 213.450, 199 214 M 154.250 215.689 C 155.213 215.941, 156.787 215.941, 157.750 215.689 C 158.713 215.438, 157.925 215.232, 156 215.232 C 154.075 215.232, 153.287 215.438, 154.250 215.689 M 128.750 216.662 C 129.438 216.940, 130.563 216.940, 131.250 216.662 C 131.938 216.385, 131.375 216.158, 130 216.158 C 128.625 216.158, 128.063 216.385, 128.750 216.662 M 147.813 220.683 C 148.534 220.972, 149.397 220.936, 149.729 220.604 C 150.061 220.272, 149.471 220.036, 148.417 220.079 C 147.252 220.127, 147.015 220.364, 147.813 220.683 M 125.813 230.683 C 126.534 230.972, 127.397 230.936, 127.729 230.604 C 128.061 230.272, 127.471 230.036, 126.417 230.079 C 125.252 230.127, 125.015 230.364, 125.813 230.683 M 146.813 230.683 C 147.534 230.972, 148.397 230.936, 148.729 230.604 C 149.061 230.272, 148.471 230.036, 147.417 230.079 C 146.252 230.127, 146.015 230.364, 146.813 230.683 M 133.733 237.124 C 134.412 237.808, 135.219 238.115, 135.526 237.807 C 135.834 237.499, 135.279 236.940, 134.293 236.564 C 132.868 236.022, 132.753 236.136, 133.733 237.124" stroke="none" fill="#4de626" fill-rule="evenodd"/><path d="M 167.483 44.053 C 166.529 47.061, 169.347 49.902, 171.769 48.374 C 172.721 47.773, 173.500 46.206, 173.500 44.891 C 173.500 41.541, 168.501 40.845, 167.483 44.053 M 182 46 C 182 47.506, 182.522 48.046, 183.750 47.810 C 184.713 47.624, 185.500 46.810, 185.500 46 C 185.500 45.190, 184.713 44.376, 183.750 44.190 C 182.522 43.954, 182 44.494, 182 46 M 121.334 47.481 C 107.668 49.960, 96.451 54.420, 86 61.530 C 82.975 63.588, 79.150 65.609, 77.500 66.021 C 75.850 66.433, 73.639 67.123, 72.586 67.555 C 71.197 68.125, 70.880 68.003, 71.430 67.113 C 72.629 65.173, 71.186 61.194, 69.035 60.511 C 66.237 59.623, 63 61.674, 63 64.335 C 63 67.061, 64.746 69, 67.200 69 C 68.190 69, 69 69.233, 69 69.518 C 69 69.803, 67.129 73.066, 64.843 76.768 C 62.557 80.471, 59.181 85.951, 57.340 88.946 C 53.163 95.744, 48.480 107.774, 46.319 117.257 C 43.721 128.656, 44 151.182, 46.872 161.908 C 51.428 178.922, 59.259 192.217, 71.719 204.089 C 84.430 216.201, 95.259 222.443, 112.500 227.597 C 120.387 229.954, 123.294 230.296, 136 230.363 C 147.863 230.426, 152.114 230.034, 159.377 228.209 C 175.913 224.052, 196.704 212.345, 199.520 205.606 C 201.032 201.988, 203.542 199.528, 206.706 198.565 C 213.548 196.481, 224.379 175.570, 228.232 157.005 C 231.625 140.659, 229.410 115.294, 223.626 104.255 L 222.338 101.798 219.110 106.829 L 215.881 111.860 217.507 117.180 C 218.401 120.106, 219.339 127, 219.591 132.500 C 219.844 138, 220.554 145.498, 221.169 149.162 C 222.425 156.644, 221.513 160.676, 215.854 172.653 C 213.421 177.803, 212.050 179.444, 208.791 181.107 C 202.965 184.079, 200 187.644, 200 191.678 C 200 198.992, 195.424 204.961, 188.309 206.925 C 186.407 207.450, 183.958 207.550, 182.868 207.147 C 180.910 206.423, 180.912 206.381, 183.016 203.707 C 184.187 202.218, 185.900 200.986, 186.823 200.968 C 191.657 200.877, 195.669 193.187, 193.046 189.040 C 192.259 187.795, 191.801 187.869, 189.946 189.540 C 188.750 190.618, 187.379 192.524, 186.900 193.776 C 185.752 196.779, 183.223 197.652, 181.286 195.714 C 179.469 193.898, 180.185 191.225, 182.727 190.332 C 184.548 189.693, 187.938 186.089, 187.978 184.750 C 187.990 184.338, 186.390 184, 184.423 184 C 181.803 184, 180.064 184.782, 177.923 186.923 C 174.836 190.010, 174.287 192.799, 176.100 196.186 C 177.062 197.984, 176.469 198.983, 171.350 204.190 C 164.218 211.442, 160.774 213, 151.878 213 C 146.395 213, 145 213.308, 145 214.518 C 145 215.819, 146.603 215.953, 156.250 215.454 C 169.089 214.791, 169.097 215.774, 156.279 219.063 C 147.520 221.310, 131.182 221.767, 122 220.021 C 110.737 217.879, 100.072 213.377, 89.164 206.158 C 83.969 202.720, 83.798 202.481, 86.319 202.184 C 90.389 201.703, 89.522 200, 85.208 200 C 82.035 200, 80.696 199.266, 77 195.500 L 72.584 191 75.963 191 C 77.822 191, 80.137 191.719, 81.108 192.598 C 83.031 194.338, 85 193.742, 85 191.420 C 85 189.682, 82.460 188.582, 74.943 187.065 C 61.052 184.260, 55.288 172.743, 54.280 145.775 C 53.719 130.771, 54.358 124.754, 57.810 112.500 L 59.500 106.500 60 139 C 60.538 173.997, 60.631 174.608, 66.155 179.633 C 71.485 184.482, 73.923 185, 91.391 185 C 101.306 185, 108.128 185.399, 108.500 186 C 108.878 186.611, 107.344 187, 104.559 187 C 102.052 187, 100.004 187.338, 100.009 187.750 C 100.031 189.616, 120.462 200.966, 123.842 200.990 C 124.581 200.996, 126.339 201.908, 127.750 203.018 C 131.902 206.284, 140.405 208.305, 146.689 207.520 C 153.229 206.702, 161.185 204.077, 166 201.148 C 169.263 199.162, 169.505 198.663, 169.580 193.759 C 169.740 183.212, 175.383 177.626, 185.236 178.258 C 189.517 178.532, 191.597 179.212, 193.432 180.936 L 195.891 183.246 204.972 174.873 C 209.966 170.268, 215.046 164.927, 216.260 163.004 C 219.180 158.379, 219.209 150.084, 216.325 144.500 C 214.713 141.379, 214.364 139.272, 214.740 134.914 C 215.313 128.253, 213.881 124.941, 208.009 119.350 L 203.965 115.500 208.135 110.500 C 213.278 104.332, 219.348 95.021, 225.082 84.500 C 229.011 77.292, 229.198 76.659, 226.972 78.105 C 220 82.631, 212.781 86.167, 212.111 85.383 C 211.696 84.897, 209.888 82.588, 208.094 80.250 C 206.300 77.912, 204.458 76, 204 76 C 203.542 76, 201.744 77.798, 200.003 79.996 L 196.838 83.993 200.419 88.176 C 202.389 90.477, 204 92.777, 204 93.287 C 204 93.797, 204.787 93.898, 205.750 93.511 C 210.533 91.590, 209.690 92.347, 199.782 98.866 L 189.063 105.918 183.407 99.988 C 180.296 96.726, 175.865 93.145, 173.560 92.029 C 168.498 89.579, 159.534 89.332, 154.346 91.500 C 152.371 92.325, 150.584 93, 150.375 93 C 150.165 93, 150.040 89.737, 150.096 85.750 C 150.153 81.763, 149.627 77.251, 148.928 75.725 C 147.217 71.991, 142.118 69.007, 137.382 68.968 C 133.752 68.938, 133.626 68.841, 135.441 67.468 C 137.168 66.162, 135.131 65.998, 116.941 65.985 C 103.374 65.975, 97.004 65.643, 98 65 C 98.825 64.467, 104.761 64.024, 111.191 64.015 C 117.889 64.007, 123.146 63.573, 123.500 63 C 124.242 61.799, 123.622 61.732, 114 61.975 C 104.608 62.213, 105.462 60.848, 116.536 57.926 C 135.625 52.888, 161.644 56.490, 175.035 66.025 L 177.972 68.116 181.976 64.899 C 186.830 60.999, 186.536 60.486, 176.721 55.719 C 158.934 47.078, 139.490 44.186, 121.334 47.481 M 75.200 52.200 C 72.510 54.890, 74.604 59, 78.665 59 C 81.628 59, 83.454 55.716, 82 53 C 80.813 50.782, 77.059 50.341, 75.200 52.200 M 86 52.481 C 86 55.001, 90.453 55.333, 94.639 53.125 L 98.500 51.088 92.250 51.044 C 87.377 51.010, 86 51.326, 86 52.481 M 194.900 62.120 C 192.480 63.837, 188.353 67.316, 185.730 69.853 C 181.646 73.801, 180.711 74.288, 179.230 73.241 C 178.278 72.568, 175.377 70.889, 172.782 69.508 C 168.419 67.188, 167.565 67.070, 161.426 67.939 C 157.775 68.456, 154.623 69.044, 154.421 69.246 C 153.786 69.880, 166.134 81.446, 175.353 88.854 L 184.207 95.967 188.172 87.767 C 191.289 81.321, 193.829 77.900, 200.045 71.775 C 206.878 65.042, 207.439 64.245, 204.174 65.911 C 198.658 68.726, 190.716 76.214, 186.480 82.596 L 182.783 88.166 179.891 85.396 C 176.568 82.212, 176.292 81.514, 178.726 82.449 C 180.010 82.941, 179.854 82.474, 178.121 80.628 C 176.119 78.498, 176.044 78.183, 177.590 78.410 C 178.581 78.556, 179.576 79.228, 179.802 79.905 C 180.027 80.582, 184.327 76.767, 189.356 71.428 C 201.586 58.443, 202.684 56.600, 194.900 62.120 M 129 62.500 C 129 63.679, 130.389 64, 135.500 64 C 140.611 64, 142 63.679, 142 62.500 C 142 61.321, 140.611 61, 135.500 61 C 130.389 61, 129 61.321, 129 62.500 M 147.502 62.997 C 146.156 65.174, 148.625 66.179, 153.516 65.445 C 158.662 64.674, 158.099 63.670, 151.865 62.502 C 149.484 62.055, 147.978 62.227, 147.502 62.997 M 74.418 67.969 C 71.791 69.032, 67.169 74.468, 66.463 77.327 C 66.167 78.522, 66.055 100.797, 66.213 126.827 L 66.500 174.155 70.235 177.577 L 73.971 181 94.185 181 C 106.814 181, 114.043 180.647, 113.450 180.060 C 112.927 179.542, 104.025 178.980, 93.666 178.810 L 74.832 178.500 71.916 175.234 L 69 171.968 69 124.519 L 69 77.070 72.108 73.529 C 74.306 71.026, 76.363 69.806, 79.131 69.363 C 81.283 69.019, 83.286 68.346, 83.581 67.869 C 84.261 66.769, 77.193 66.846, 74.418 67.969 M 100.324 69.808 C 98.578 69.977, 96.610 70.765, 95.952 71.558 C 95.093 72.593, 92.510 73, 86.801 73 C 79.342 73, 78.664 73.182, 75.923 75.923 L 73 78.846 73 124.850 L 73 170.855 75.635 172.927 C 78.051 174.828, 79.597 175, 94.290 175 C 110.247 175, 110.303 174.992, 108.500 173 C 106.857 171.185, 105.420 171, 92.927 171 C 85.357 171, 78.452 170.727, 77.582 170.393 C 76.173 169.852, 76 164.995, 76 125.893 L 76 82 84.250 81.963 C 88.787 81.943, 101.805 81.959, 113.177 81.998 L 133.854 82.070 136.427 79.295 L 139 76.520 139 79.260 C 139 82.456, 139.252 82.536, 142.535 80.385 C 145.778 78.260, 145.647 77.365, 141.750 74.989 C 139.307 73.500, 136.713 73.007, 131.307 73.004 C 125.623 73.001, 123.839 72.633, 122.807 71.250 C 121.731 69.810, 119.907 69.500, 112.500 69.500 C 107.550 69.500, 102.071 69.639, 100.324 69.808 M 56 71.583 C 56 72.454, 56.534 72.989, 57.188 72.771 C 59.042 72.153, 59.349 70, 57.583 70 C 56.712 70, 56 70.713, 56 71.583 M 99 74.500 C 99 75.738, 100.833 76, 109.500 76 C 118.167 76, 120 75.738, 120 74.500 C 120 73.262, 118.167 73, 109.500 73 C 100.833 73, 99 73.262, 99 74.500 M 143.750 84.428 C 141.915 89.596, 141.375 98, 142.878 98 C 145.195 98, 146.073 94.793, 145.794 87.345 L 145.500 79.500 143.750 84.428 M 50.380 82.452 C 49.683 84.267, 50.695 86, 52.452 86 C 54.277 86, 55.096 83.496, 53.722 82.122 C 52.199 80.599, 51.048 80.712, 50.380 82.452 M 85 92.500 C 81.835 95.704, 80.203 98, 81.088 98 C 82.477 98, 85.523 95.148, 90.436 89.250 C 94.109 84.840, 90.339 87.094, 85 92.500 M 103.980 89.524 C 103.284 90.362, 102.909 91.242, 103.145 91.479 C 103.382 91.715, 104.125 91.030, 104.796 89.955 C 106.248 87.630, 105.764 87.375, 103.980 89.524 M 126.866 96.864 C 116.589 106.362, 103.945 119.628, 101.253 123.737 L 99.614 126.238 93.854 119.869 L 88.095 113.500 84.545 117.019 L 80.996 120.538 90.072 129.519 L 99.148 138.500 105.126 132 C 122.206 113.427, 137.894 92.182, 136.847 89.042 C 136.651 88.452, 132.159 91.972, 126.866 96.864 M 194.190 92.750 C 194.376 93.713, 195.190 94.500, 196 94.500 C 196.810 94.500, 197.624 93.713, 197.810 92.750 C 198.046 91.522, 197.506 91, 196 91 C 194.494 91, 193.954 91.522, 194.190 92.750 M 88.687 97.805 C 86.060 100.547, 85.057 102.701, 86.953 101.529 C 88.031 100.863, 92.343 95, 91.755 95 C 91.546 95, 90.165 96.262, 88.687 97.805 M 100.250 101.109 C 95.268 105.934, 93.949 108, 95.850 108 C 96.318 108, 99.048 105.300, 101.919 102 C 108.289 94.676, 107.389 94.195, 100.250 101.109 M 154.147 98.019 C 151.206 99.354, 143.186 106.532, 129.421 120.151 C 107.443 141.896, 105.428 144.764, 105.570 154.113 C 105.661 160.089, 107.533 163.159, 121.203 179.746 C 129.468 189.775, 133.377 193.721, 136.413 195.100 C 145.287 199.130, 149.777 197.255, 164.269 183.466 L 175.377 172.897 175.119 168.042 C 174.899 163.892, 175.286 162.711, 177.783 159.917 L 180.704 156.648 187.473 163.824 C 196.289 173.170, 197.849 173.272, 206.350 165.055 C 212.259 159.344, 212.500 158.916, 212.500 154.148 C 212.500 150.087, 211.936 148.489, 209.393 145.347 C 207.685 143.236, 204.184 140.427, 201.615 139.105 C 194.717 135.555, 191.479 136.868, 179.743 147.975 C 171.998 155.304, 170.050 157.749, 169.019 161.431 C 168.326 163.906, 168.009 166.581, 168.314 167.375 C 168.669 168.300, 165.202 172.386, 158.661 178.750 C 147.934 189.186, 144.832 190.824, 139.891 188.656 C 137.291 187.516, 120.479 168.742, 115.539 161.462 C 112.443 156.900, 112.187 150.845, 114.903 146.391 C 117.791 141.655, 152.523 107.830, 157.308 105.093 C 163.480 101.563, 168.098 102.656, 174.028 109.048 L 178.556 113.929 181.290 111.715 L 184.023 109.500 179.818 104.614 C 172.650 96.287, 163.273 93.878, 154.147 98.019 M 201.786 103.501 C 196.994 106.403, 189.344 111.697, 184.786 115.265 C 175.339 122.662, 158.989 139.203, 154.159 146.250 C 152.369 148.862, 150.797 151, 150.667 151 C 150.536 151, 148 147.602, 145.030 143.450 L 139.630 135.899 135.622 139.907 C 131.932 143.597, 131.736 144.058, 133.153 145.708 C 134 146.694, 138.099 151.634, 142.262 156.686 L 149.830 165.872 157.165 157.720 C 161.199 153.237, 173.356 140.217, 184.180 128.787 C 204.009 107.850, 211.612 99.254, 210.891 98.587 C 210.676 98.388, 206.579 100.599, 201.786 103.501 M 43.250 99.703 C 41.184 100.469, 41.752 104, 43.941 104 C 45.009 104, 46.187 103.507, 46.559 102.904 C 47.419 101.514, 44.910 99.088, 43.250 99.703 M 102 108.500 C 100.134 110.425, 99.033 112, 99.554 112 C 100.074 112, 101.757 110.425, 103.293 108.500 C 106.858 104.032, 106.331 104.032, 102 108.500 M 158.405 111.250 L 156.500 113.500 158.750 111.595 C 159.988 110.547, 161 109.535, 161 109.345 C 161 108.545, 160.195 109.136, 158.405 111.250 M 160.994 112.507 L 158.639 115.013 161.510 118.011 L 164.382 121.008 167.195 118.313 L 170.008 115.618 167.317 112.809 C 165.837 111.264, 164.338 110, 163.987 110 C 163.636 110, 162.289 111.128, 160.994 112.507 M 210.694 115.639 C 209.895 116.438, 210.798 118, 212.059 118 C 212.577 118, 213 117.325, 213 116.500 C 213 114.954, 211.820 114.513, 210.694 115.639 M 197.337 122.108 L 195.265 124.180 197.376 128.034 C 198.804 130.641, 200.702 132.365, 203.243 133.363 C 206.970 134.827, 207 134.819, 207 132.370 C 207 129.255, 204.888 125.152, 201.799 122.268 L 199.409 120.036 197.337 122.108 M 148.528 124.971 L 145.639 127.987 147.994 130.493 C 150.859 133.544, 150.809 133.545, 154.400 130.387 L 157.300 127.838 154.358 124.897 L 151.417 121.955 148.528 124.971 M 187.500 132.476 L 184.500 134.942 188.722 133.330 C 191.044 132.444, 192.705 131.332, 192.413 130.859 C 191.592 129.531, 190.742 129.811, 187.500 132.476 M 34.709 137.624 C 33.464 138.869, 33.948 141.766, 35.500 142.362 C 37.956 143.304, 40.131 141.920, 39.803 139.623 C 39.503 137.520, 36.135 136.199, 34.709 137.624 M 189.486 148.014 L 184.548 153.028 190.760 159.240 L 196.972 165.452 201.986 160.514 C 204.744 157.798, 207 154.866, 207 154 C 207 152.004, 197.937 143, 195.928 143 C 195.101 143, 192.202 145.256, 189.486 148.014 M 84.476 148.025 C 80.670 151.998, 82.238 153.223, 86.138 149.323 C 87.829 147.633, 88.783 145.984, 88.259 145.660 C 87.735 145.336, 86.032 146.400, 84.476 148.025 M 88 153.500 C 85.654 155.921, 85.094 157, 86.185 157 C 87.053 157, 88.964 155.425, 90.432 153.500 C 91.900 151.575, 92.717 150, 92.247 150 C 91.777 150, 89.866 151.575, 88 153.500 M 122.697 152.577 L 119.894 154.995 122.598 158.540 L 125.302 162.085 128.108 159.396 C 131.093 156.537, 130.944 155.061, 127.343 151.818 C 125.615 150.261, 125.326 150.309, 122.697 152.577 M 191.697 151.783 C 190.256 153.375, 190.337 153.722, 192.672 155.970 C 195.145 158.349, 195.260 158.365, 196.610 156.519 C 198.927 153.349, 197.853 151.547, 195.217 154.183 C 193.596 155.804, 192.424 154.399, 193.906 152.613 C 195.653 150.509, 193.561 149.723, 191.697 151.783 M 197.494 157.006 C 196.496 158.110, 195.973 159.307, 196.333 159.667 C 197.063 160.396, 201 157.171, 201 155.845 C 201 154.385, 199.381 154.921, 197.494 157.006 M 91.861 157.914 C 90.562 158.967, 89.761 160.090, 90.079 160.410 C 90.398 160.730, 91.714 159.869, 93.004 158.496 C 95.787 155.533, 95.179 155.224, 91.861 157.914 M 136.500 169.423 L 133.500 171.836 136.500 175.163 C 138.150 176.993, 139.617 178.684, 139.760 178.922 C 139.904 179.160, 141.339 178.091, 142.950 176.548 L 145.879 173.742 143.190 170.371 C 141.710 168.517, 140.275 167.002, 140 167.005 C 139.725 167.008, 138.150 168.096, 136.500 169.423 M 185.500 169 C 185.160 169.550, 185.359 170, 185.941 170 C 186.523 170, 187 169.550, 187 169 C 187 168.450, 186.802 168, 186.559 168 C 186.316 168, 185.840 168.450, 185.500 169 M 207.446 175.087 C 206.416 176.755, 208.733 178.667, 210.113 177.287 C 211.267 176.133, 210.545 174, 209 174 C 208.515 174, 207.816 174.489, 207.446 175.087 M 89.563 190.070 C 93.995 194.703, 98.546 197.172, 101.992 196.815 C 105.011 196.503, 104.982 196.460, 98.601 191.750 C 94.571 188.776, 91.129 187, 89.395 187 L 86.626 187 89.563 190.070 M 212.688 198.646 C 211.272 200.061, 212.073 202, 214.073 202 C 215.471 202, 216.041 201.457, 215.823 200.333 C 215.466 198.492, 213.759 197.574, 212.688 198.646 M 93.667 199.667 C 91.887 201.446, 93.708 203.163, 101.818 207.352 C 112.331 212.782, 122.935 215.848, 132.500 216.225 C 138.066 216.444, 139.500 216.204, 139.500 215.054 C 139.500 213.997, 137.092 213.261, 130.541 212.315 C 119.134 210.668, 113.532 208.844, 103.137 203.389 C 93.742 198.458, 94.555 198.778, 93.667 199.667 M 61.380 204.452 C 60.683 206.267, 61.695 208, 63.452 208 C 65.277 208, 66.096 205.496, 64.722 204.122 C 63.199 202.599, 62.048 202.712, 61.380 204.452 M 203.364 204.493 C 203.018 205.396, 203.169 206.569, 203.700 207.100 C 205.099 208.499, 208.153 207.032, 207.788 205.136 C 207.364 202.935, 204.142 202.467, 203.364 204.493 M 199 214 C 199 214.550, 199.450 215, 200 215 C 200.550 215, 201 214.550, 201 214 C 201 213.450, 200.550 213, 200 213 C 199.450 213, 199 213.450, 199 214 M 78.173 219.659 C 78.594 221.848, 81.500 222.157, 81.500 220.014 C 81.500 219.196, 80.672 218.368, 79.659 218.173 C 78.323 217.916, 77.916 218.323, 78.173 219.659 M 133.915 233.602 C 133.027 234.672, 132.988 235.388, 133.775 236.175 C 135.156 237.556, 138 236.522, 138 234.638 C 138 232.555, 135.344 231.881, 133.915 233.602" stroke="none" fill="#0f2e3d" fill-rule="evenodd"/></svg>